# xmcd
#
# Track frame offsets:
#	182
#	19622
#	39732
#	54420
#
# Disc length: 956 seconds
#
# Revision: 1
# Processed by: cddbd v1.5.2PL0 Copyright (c) Steve Scherf et al.
# Submitted via: audiograbber 1.83.01
#
DISCID=2903ba04
DTITLE=Joe - Treat Her Like A Lady [CDM)
DYEAR=2000
DGENRE=R&B
TTITLE0=Treat Her Like A Lady 
TTITLE1=I'm Missing You
TTITLE2=Soon As I Get Paid
TTITLE3=No One Else Comes Close
EXTD=
EXTT0=
EXTT1=
EXTT2=
EXTT3=
PLAYORDER=
